<?xml version="1.0" encoding="UTF-8" standalone="no"?>
<!-- Created with Inkscape (http://www.inkscape.org/) -->

<svg
   width="168.758mm"
   height="33.296585mm"
   viewBox="0 0 168.75799 33.296585"
   version="1.1"
   id="svg1"
   inkscape:version="1.3 (1:1.3+202307231459+0e150ed6c4)"
   sodipodi:docname="faces.svg"
   inkscape:export-filename="faces.png"
   inkscape:export-xdpi="75.255692"
   inkscape:export-ydpi="75.255692"
   xmlns:inkscape="http://www.inkscape.org/namespaces/inkscape"
   xmlns:sodipodi="http://sodipodi.sourceforge.net/DTD/sodipodi-0.dtd"
   xmlns="http://www.w3.org/2000/svg"
   xmlns:svg="http://www.w3.org/2000/svg">
  <sodipodi:namedview
     id="namedview1"
     pagecolor="#ffffff"
     bordercolor="#666666"
     borderopacity="1.0"
     inkscape:showpageshadow="2"
     inkscape:pageopacity="0.0"
     inkscape:pagecheckerboard="0"
     inkscape:deskcolor="#d1d1d1"
     inkscape:document-units="mm"
     inkscape:zoom="0.91223344"
     inkscape:cx="368.87488"
     inkscape:cy="271.86024"
     inkscape:window-width="1848"
     inkscape:window-height="1016"
     inkscape:window-x="72"
     inkscape:window-y="27"
     inkscape:window-maximized="1"
     inkscape:current-layer="layer1"
     showguides="true"
     inkscape:export-bgcolor="#ffffffff">
    <sodipodi:guide
       position="108.4217,-5.0938897"
       orientation="0,-1"
       id="guide35"
       inkscape:locked="false" />
    <sodipodi:guide
       position="90.168813,-10.4262"
       orientation="0,-1"
       id="guide36"
       inkscape:locked="false" />
  </sodipodi:namedview>
  <defs
     id="defs1">
    <inkscape:path-effect
       effect="mirror_symmetry"
       start_point="44.541489,71.922347"
       end_point="44.541489,73.124131"
       center_point="44.541489,72.523239"
       id="path-effect28"
       is_visible="true"
       lpeversion="1.2"
       lpesatellites=""
       mode="free"
       discard_orig_path="false"
       fuse_paths="false"
       oposite_fuse="false"
       split_items="false"
       split_open="false"
       link_styles="false" />
    <inkscape:path-effect
       effect="mirror_symmetry"
       start_point="44.541489,71.253435"
       end_point="44.541489,72.455219"
       center_point="44.541489,71.854327"
       id="path-effect26"
       is_visible="true"
       lpeversion="1.2"
       lpesatellites=""
       mode="free"
       discard_orig_path="false"
       fuse_paths="false"
       oposite_fuse="false"
       split_items="false"
       split_open="false"
       link_styles="false" />
    <inkscape:path-effect
       effect="mirror_symmetry"
       start_point="46.651821,51.143045"
       end_point="46.574408,81.079752"
       center_point="46.613114,66.111399"
       id="path-effect24"
       is_visible="true"
       lpeversion="1.2"
       lpesatellites=""
       mode="free"
       discard_orig_path="false"
       fuse_paths="false"
       oposite_fuse="false"
       split_items="false"
       split_open="false"
       link_styles="false" />
    <inkscape:path-effect
       effect="mirror_symmetry"
       start_point="44.541489,71.922347"
       end_point="44.541489,73.124131"
       center_point="44.541489,72.523239"
       id="path-effect18"
       is_visible="true"
       lpeversion="1.2"
       lpesatellites=""
       mode="free"
       discard_orig_path="false"
       fuse_paths="false"
       oposite_fuse="false"
       split_items="false"
       split_open="false"
       link_styles="false" />
    <inkscape:path-effect
       effect="mirror_symmetry"
       start_point="44.541489,71.253435"
       end_point="44.541489,72.455219"
       center_point="44.541489,71.854327"
       id="path-effect16"
       is_visible="true"
       lpeversion="1.2"
       lpesatellites=""
       mode="free"
       discard_orig_path="false"
       fuse_paths="false"
       oposite_fuse="false"
       split_items="false"
       split_open="false"
       link_styles="false" />
    <inkscape:path-effect
       effect="mirror_symmetry"
       start_point="46.651821,51.143045"
       end_point="46.574408,81.079752"
       center_point="46.613114,66.111399"
       id="path-effect14"
       is_visible="true"
       lpeversion="1.2"
       lpesatellites=""
       mode="free"
       discard_orig_path="false"
       fuse_paths="false"
       oposite_fuse="false"
       split_items="false"
       split_open="false"
       link_styles="false" />
    <inkscape:path-effect
       effect="mirror_symmetry"
       start_point="44.541489,71.922347"
       end_point="44.541489,73.124131"
       center_point="44.541489,72.523239"
       id="path-effect8"
       is_visible="true"
       lpeversion="1.2"
       lpesatellites=""
       mode="free"
       discard_orig_path="false"
       fuse_paths="false"
       oposite_fuse="false"
       split_items="false"
       split_open="false"
       link_styles="false" />
    <inkscape:path-effect
       effect="mirror_symmetry"
       start_point="44.541489,71.922347"
       end_point="44.541489,73.124131"
       center_point="44.541489,72.523239"
       id="path-effect6"
       is_visible="true"
       lpeversion="1.2"
       lpesatellites=""
       mode="free"
       discard_orig_path="false"
       fuse_paths="false"
       oposite_fuse="false"
       split_items="false"
       split_open="false"
       link_styles="false" />
    <inkscape:path-effect
       effect="mirror_symmetry"
       start_point="46.651821,51.143045"
       end_point="46.651821,84.04411"
       center_point="46.651821,67.593578"
       id="path-effect1"
       is_visible="true"
       lpeversion="1.2"
       lpesatellites=""
       mode="free"
       discard_orig_path="false"
       fuse_paths="false"
       oposite_fuse="false"
       split_items="false"
       split_open="false"
       link_styles="false" />
  </defs>
  <g
     inkscape:label="Layer 1"
     inkscape:groupmode="layer"
     id="layer1"
     transform="translate(-12.170385,-13.867513)">
    <g
       id="g33">
      <path
         style="fill:none;stroke:#000000;stroke-width:0.264583px;stroke-linecap:butt;stroke-linejoin:miter;stroke-opacity:1"
         d="m 24.138728,21.22785 c -3.313244,-1.506702 -1.407517,-2.626493 -4.202202,-1.919939 -2.794685,0.706554 -2.794685,0.706554 -2.794685,0.706554"
         id="path2" />
      <path
         style="fill:none;stroke:#000000;stroke-width:0.264583px;stroke-linecap:butt;stroke-linejoin:miter;stroke-opacity:1"
         d="m 32.044325,51.143045 c 0.209459,5.70352 -0.766065,13.946296 0.73602,16.879898 3.182945,6.433598 5.803248,15.734973 13.871476,16.021167 M 61.259317,51.143045 c -0.209459,5.70352 0.766065,13.946296 -0.73602,16.879898 -3.182945,6.433598 -5.803248,15.734973 -13.871476,16.021167"
         id="path1"
         sodipodi:nodetypes="ccc"
         inkscape:path-effect="#path-effect1"
         inkscape:original-d="m 32.044325,51.143045 c 0.209459,5.70352 -0.766065,13.946296 0.73602,16.879898 3.182945,6.433598 5.803248,15.734973 13.871476,16.021167"
         transform="translate(-19.620803,-37.012219)" />
      <ellipse
         style="fill:#000000;fill-opacity:1;stroke-width:1.74336;stroke-linecap:round;stroke-linejoin:round;paint-order:stroke fill markers"
         id="path3"
         cx="20.733692"
         cy="20.149845"
         rx="1.2397063"
         ry="0.76618057" />
      <path
         style="fill:none;stroke:#000000;stroke-width:0.264583px;stroke-linecap:butt;stroke-linejoin:miter;stroke-opacity:1"
         d="m 26.084875,22.123955 c 0,2.244421 -1.528871,5.003432 -2.024137,5.473062 -0.495266,0.469631 -1.941137,-0.192857 -1.084572,1.4169 0.856565,1.609759 1.553133,1.63481 2.009222,1.507215 0.456089,-0.127596 0.975982,-0.930717 1.340329,-0.409271 0.364344,0.521446 0.825524,1.008531 1.312608,0.675261 0.487085,-0.333269 0.794719,-0.439983 0.871628,-0.769082 0.07691,-0.329097 -0.281636,-1.261124 -0.281636,-1.261124"
         id="path4" />
      <path
         style="fill:none;stroke:#000000;stroke-width:0.264583px;stroke-linecap:butt;stroke-linejoin:miter;stroke-opacity:1"
         d="m 28.78871,21.274998 c 3.313244,-1.506702 1.407517,-2.626493 4.202202,-1.919939 2.794685,0.706554 2.794685,0.706554 2.794685,0.706554"
         id="path5" />
      <ellipse
         style="fill:#000000;fill-opacity:1;stroke-width:1.74336;stroke-linecap:round;stroke-linejoin:round;paint-order:stroke fill markers"
         id="ellipse5"
         cx="-32.193745"
         cy="20.196995"
         rx="1.2397063"
         ry="0.76618057"
         transform="scale(-1,1)" />
      <path
         style="fill:none;stroke:#000000;stroke-width:0.264583px;stroke-linecap:butt;stroke-linejoin:miter;stroke-opacity:1"
         d="m 37.82066,70.95762 c 0.69307,1.139935 2.058676,1.184746 3.868611,1.486302 1.809935,0.301557 2.138225,-0.338593 2.398223,0.04323 0.134145,0.197001 0.516908,-0.05127 0.516908,-0.05127 m 6.657916,-1.478262 c -0.69307,1.139935 -2.058676,1.184746 -3.868611,1.486302 -1.809935,0.301557 -2.138225,-0.338593 -2.398223,0.04323 -0.134145,0.197001 -0.516908,-0.05127 -0.516908,-0.05127"
         id="path6"
         inkscape:path-effect="#path-effect6"
         inkscape:original-d="m 37.82066,70.95762 c 0.69307,1.139935 2.058676,1.184746 3.868611,1.486302 1.809935,0.301557 2.138225,-0.338593 2.398223,0.04323 0.134145,0.197001 0.516908,-0.05127 0.516908,-0.05127"
         transform="translate(-18.085671,-37.202189)"
         sodipodi:nodetypes="cssc" />
      <path
         style="fill:none;stroke:#000000;stroke-width:0.264583px;stroke-linecap:butt;stroke-linejoin:miter;stroke-opacity:1"
         d="m 37.855498,70.284003 c 0.69307,1.139935 2.023838,1.858363 3.833773,2.159919 1.809935,0.301557 2.064559,-0.07085 2.324557,0.310972 0.134145,0.197001 0.590574,-0.319012 0.590574,-0.319012 m 6.623078,-2.151879 c -0.69307,1.139935 -2.023838,1.858363 -3.833773,2.159919 -1.809935,0.301557 -2.064559,-0.07085 -2.324557,0.310972 -0.134145,0.197001 -0.590574,-0.319012 -0.590574,-0.319012"
         id="path7"
         inkscape:path-effect="#path-effect8"
         inkscape:original-d="m 37.855498,70.284003 c 0.69307,1.139935 2.023838,1.858363 3.833773,2.159919 1.809935,0.301557 2.064559,-0.07085 2.324557,0.310972 0.134145,0.197001 0.590574,-0.319012 0.590574,-0.319012"
         transform="translate(-18.060029,-36.381779)"
         sodipodi:nodetypes="cssc" />
    </g>
    <g
       id="g35"
       transform="translate(-12.646833,-37.306251)">
      <path
         style="fill:none;stroke:#000000;stroke-width:0.264583px;stroke-linecap:butt;stroke-linejoin:miter;stroke-opacity:1"
         d="m 103.32349,58.300205 c -3.31325,-1.506702 -1.40752,-2.626493 -4.202203,-1.919939 -2.794685,0.706554 -2.794685,0.706554 -2.794685,0.706554"
         id="path8" />
      <path
         style="fill:none;stroke:#000000;stroke-width:0.264583px;stroke-linecap:butt;stroke-linejoin:miter;stroke-opacity:1"
         d="m 32.044325,51.143045 c 2.889621,12.669786 -1.912281,17.532671 -0.410196,20.466273 1.591473,3.216799 5.797938,4.033484 7.817554,6.586425 1.445681,1.827446 5.175426,2.919039 7.621707,2.973194 M 61.259121,51.218591 c -2.955108,12.654672 1.821581,17.542327 0.304344,20.468121 -1.608088,3.208525 -5.818721,4.003445 -7.851513,6.545906 -1.455113,1.819945 -5.190453,2.892234 -7.636982,2.933737"
         id="path9"
         sodipodi:nodetypes="ccsc"
         inkscape:path-effect="#path-effect14"
         inkscape:original-d="m 32.044325,51.143045 c 2.889621,12.669786 -1.912281,17.532671 -0.410196,20.466273 1.591473,3.216799 5.797938,4.033484 7.817554,6.586425 1.445681,1.827446 5.175426,2.919039 7.621707,2.973194"
         transform="translate(59.563958,0.06013566)" />
      <ellipse
         style="fill:#000000;fill-opacity:1;stroke-width:1.74336;stroke-linecap:round;stroke-linejoin:round;paint-order:stroke fill markers"
         id="ellipse9"
         cx="99.918457"
         cy="57.222198"
         rx="1.2397063"
         ry="0.76618057" />
      <path
         style="fill:none;stroke:#000000;stroke-width:0.264583px;stroke-linecap:butt;stroke-linejoin:miter;stroke-opacity:1"
         d="m 105.26964,59.19631 c 0,2.244421 -1.57405,3.580729 -2.02414,5.473062 -0.1372,0.576846 -0.48311,0.374794 -0.2002,1.767513 0.363,1.786968 0.66876,1.284197 1.12485,1.156602 0.45609,-0.127596 0.97598,-0.930717 1.34033,-0.409271 0.36434,0.521446 0.82552,1.008531 1.31261,0.675261 0.48708,-0.333269 0.79471,-0.439983 0.87162,-0.769082 0.0769,-0.329097 -0.28163,-1.261124 -0.28163,-1.261124"
         id="path10"
         sodipodi:nodetypes="casssssc" />
      <path
         style="fill:none;stroke:#000000;stroke-width:0.264583px;stroke-linecap:butt;stroke-linejoin:miter;stroke-opacity:1"
         d="m 107.97347,58.347353 c 3.31324,-1.506702 1.40752,-2.626493 4.2022,-1.919939 2.79469,0.706554 2.79469,0.706554 2.79469,0.706554"
         id="path11" />
      <ellipse
         style="fill:#000000;fill-opacity:1;stroke-width:1.74336;stroke-linecap:round;stroke-linejoin:round;paint-order:stroke fill markers"
         id="ellipse11"
         cx="-111.37851"
         cy="57.269348"
         rx="1.2397063"
         ry="0.76618057"
         transform="scale(-1,1)" />
      <path
         style="fill:none;stroke:#000000;stroke-width:0.264583px;stroke-linecap:butt;stroke-linejoin:miter;stroke-opacity:1"
         d="m 37.82066,70.95762 c 0.69307,1.139935 2.115028,0.548938 3.924963,0.850494 1.809935,0.301557 2.112435,-0.146824 2.372433,0.234999 0.134145,0.197001 0.461939,-0.180668 0.461939,-0.180668 m 6.682323,-0.904825 c -0.69307,1.139935 -2.115028,0.548938 -3.924963,0.850494 -1.809935,0.301557 -2.112435,-0.146824 -2.372433,0.234999 -0.134145,0.197001 -0.461939,-0.180668 -0.461939,-0.180668"
         id="path12"
         inkscape:path-effect="#path-effect16"
         inkscape:original-d="m 37.82066,70.95762 c 0.69307,1.139935 2.115028,0.548938 3.924963,0.850494 1.809935,0.301557 2.112435,-0.146824 2.372433,0.234999 0.134145,0.197001 0.461939,-0.180668 0.461939,-0.180668"
         transform="translate(61.09909,-0.12983478)"
         sodipodi:nodetypes="cssc" />
      <path
         style="fill:none;stroke:#000000;stroke-width:0.264583px;stroke-linecap:butt;stroke-linejoin:miter;stroke-opacity:1"
         d="m 37.855498,70.284003 c 0.69307,1.139935 2.023838,1.858363 3.833773,2.159919 1.809935,0.301557 2.064559,-0.07085 2.324557,0.310972 0.134145,0.197001 0.590574,-0.319012 0.590574,-0.319012 m 6.623078,-2.151879 c -0.69307,1.139935 -2.023838,1.858363 -3.833773,2.159919 -1.809935,0.301557 -2.064559,-0.07085 -2.324557,0.310972 -0.134145,0.197001 -0.590574,-0.319012 -0.590574,-0.319012"
         id="path13"
         inkscape:path-effect="#path-effect18"
         inkscape:original-d="m 37.855498,70.284003 c 0.69307,1.139935 2.023838,1.858363 3.833773,2.159919 1.809935,0.301557 2.064559,-0.07085 2.324557,0.310972 0.134145,0.197001 0.590574,-0.319012 0.590574,-0.319012"
         transform="translate(61.124732,0.6905759)"
         sodipodi:nodetypes="cssc" />
    </g>
    <g
       id="g37"
       transform="translate(5.9547416,-36.389518)">
      <path
         style="fill:none;stroke:#000000;stroke-width:0.264583px;stroke-linecap:butt;stroke-linejoin:miter;stroke-opacity:1"
         d="m 32.044325,51.143045 c 2.889621,12.669786 1.032638,15.347484 2.534723,18.281086 1.591473,3.216799 2.172812,3.467087 4.192428,6.020028 1.445681,1.827446 3.382753,5.303469 8.301914,5.724778 M 61.259121,51.218591 c -2.955108,12.654672 -1.111998,15.341938 -2.629235,18.267733 -1.608088,3.208525 -2.190713,3.455803 -4.223506,5.998265 -1.455112,1.819945 -3.410135,5.285903 -8.33141,5.681766"
         id="path19"
         sodipodi:nodetypes="ccsc"
         inkscape:path-effect="#path-effect24"
         inkscape:original-d="m 32.044325,51.143045 c 2.889621,12.669786 1.032638,15.347484 2.534723,18.281086 1.591473,3.216799 2.172812,3.467087 4.192428,6.020028 1.445681,1.827446 3.382753,5.303469 8.301914,5.724778"
         transform="translate(113.5857,0.84491757)" />
      <path
         style="fill:none;stroke:#000000;stroke-width:0.264583px;stroke-linecap:butt;stroke-linejoin:miter;stroke-opacity:1"
         d="m 159.29138,59.981091 c 0,2.244421 -1.57405,3.580729 -2.02414,5.473062 -0.1372,0.576846 -0.48311,0.374794 -0.2002,1.767513 0.363,1.786968 0.66876,1.284197 1.12485,1.156602 0.45609,-0.127596 0.97598,-0.930717 1.34033,-0.409271 0.36434,0.521446 0.82552,1.008531 1.31261,0.675261 0.48708,-0.333269 0.79471,-0.439983 0.87162,-0.769082 0.0769,-0.329097 -0.28163,-1.261124 -0.28163,-1.261124"
         id="path20"
         sodipodi:nodetypes="casssssc" />
      <path
         style="fill:none;stroke:#000000;stroke-width:0.264583px;stroke-linecap:butt;stroke-linejoin:miter;stroke-opacity:1"
         d="m 156.31106,56.705072 c 1.19823,-0.889927 1.49076,-1.457338 3.33124,-1.482194 1.84048,-0.02486 3.74335,2.097809 3.74335,2.097809"
         id="path21"
         sodipodi:nodetypes="czc" />
      <ellipse
         style="fill:#000000;fill-opacity:1;stroke-width:1.74336;stroke-linecap:round;stroke-linejoin:round;paint-order:stroke fill markers"
         id="ellipse21"
         cx="-159.84044"
         cy="56.65229"
         rx="1.2397063"
         ry="0.76618057"
         transform="scale(-1,1)" />
      <path
         style="fill:none;stroke:#000000;stroke-width:0.264583px;stroke-linecap:butt;stroke-linejoin:miter;stroke-opacity:1"
         d="m 37.82066,70.95762 c 0.69307,1.139935 2.115028,0.548938 3.924963,0.850494 1.809935,0.301557 2.112435,-0.146824 2.372433,0.234999 0.134145,0.197001 0.461939,-0.180668 0.461939,-0.180668 m 6.682323,-0.904825 c -0.69307,1.139935 -2.115028,0.548938 -3.924963,0.850494 -1.809935,0.301557 -2.112435,-0.146824 -2.372433,0.234999 -0.134145,0.197001 -0.461939,-0.180668 -0.461939,-0.180668"
         id="path22"
         inkscape:path-effect="#path-effect26"
         inkscape:original-d="m 37.82066,70.95762 c 0.69307,1.139935 2.115028,0.548938 3.924963,0.850494 1.809935,0.301557 2.112435,-0.146824 2.372433,0.234999 0.134145,0.197001 0.461939,-0.180668 0.461939,-0.180668"
         transform="translate(115.12083,0.65494713)"
         sodipodi:nodetypes="cssc" />
      <path
         style="fill:none;stroke:#000000;stroke-width:0.264583px;stroke-linecap:butt;stroke-linejoin:miter;stroke-opacity:1"
         d="m 37.855498,70.284003 c 0.69307,1.139935 2.023838,1.858363 3.833773,2.159919 1.809935,0.301557 2.064559,-0.07085 2.324557,0.310972 0.134145,0.197001 0.572547,0.02578 0.572547,0.02578 m 6.641105,-2.496671 c -0.69307,1.139935 -2.023838,1.858363 -3.833773,2.159919 -1.809935,0.301557 -2.064559,-0.07085 -2.324557,0.310972 -0.134145,0.197001 -0.572547,0.02578 -0.572547,0.02578"
         id="path23"
         inkscape:path-effect="#path-effect28"
         inkscape:original-d="m 37.855498,70.284003 c 0.69307,1.139935 2.023838,1.858363 3.833773,2.159919 1.809935,0.301557 2.064559,-0.07085 2.324557,0.310972 0.134145,0.197001 0.572547,0.02578 0.572547,0.02578"
         transform="translate(115.14647,1.4753578)"
         sodipodi:nodetypes="cssc" />
    </g>
    <rect
       style="fill:#000000;fill-opacity:1;stroke-width:0.595609;stroke-linecap:round;stroke-linejoin:round;paint-order:stroke fill markers"
       id="rect31"
       width="5.374608"
       height="0.76780117"
       x="58.233307"
       y="30.265461"
       ry="0.32050854" />
    <rect
       style="fill:#000000;fill-opacity:1;stroke-width:0.595609;stroke-linecap:round;stroke-linejoin:round;paint-order:stroke fill markers"
       id="rect32"
       width="5.374608"
       height="0.76780117"
       x="58.233307"
       y="31.909691"
       ry="0.32050854" />
    <text
       xml:space="preserve"
       style="font-stretch:condensed;font-size:4.9389px;line-height:1.25;font-family:'Gillius ADF';-inkscape-font-specification:'Gillius ADF, Condensed';text-align:center;letter-spacing:0px;word-spacing:0px;text-anchor:middle;stroke-width:0.264583"
       x="61.084389"
       y="25.505505"
       id="text32"><tspan
         sodipodi:role="line"
         id="tspan32"
         style="stroke-width:0.264583"
         x="61.084389"
         y="25.505505">Same Topology</tspan></text>
    <g
       id="g36"
       transform="translate(-2.1329764,-25.355561)">
      <rect
         style="fill:#000000;fill-opacity:1;stroke-width:0.586259;stroke-linecap:round;stroke-linejoin:round;paint-order:stroke fill markers"
         id="rect28"
         width="5.2902308"
         height="0.75574726"
         x="127.61983"
         y="55.896832"
         ry="0.3154768" />
      <rect
         style="fill:#000000;fill-opacity:1;stroke-width:0.586259;stroke-linecap:round;stroke-linejoin:round;paint-order:stroke fill markers"
         id="rect29"
         width="5.2902308"
         height="0.75574726"
         x="127.61983"
         y="57.515247"
         ry="0.3154768" />
      <rect
         style="fill:#000000;fill-opacity:1;stroke-width:0.415689;stroke-linecap:round;stroke-linejoin:round;paint-order:stroke fill markers"
         id="rect30"
         width="6.0638337"
         height="0.33148348"
         x="112.37869"
         y="-83.477631"
         ry="0.13837345"
         transform="rotate(59.492331)" />
      <text
         xml:space="preserve"
         style="font-stretch:condensed;font-size:4.9389px;line-height:1.25;font-family:'Gillius ADF';-inkscape-font-specification:'Gillius ADF, Condensed';text-align:center;letter-spacing:0px;word-spacing:0px;text-anchor:middle;stroke-width:0.264583"
         x="132.93687"
         y="51.231667"
         id="text33"><tspan
           sodipodi:role="line"
           id="tspan33"
           style="stroke-width:0.264583"
           x="132.93687"
           y="51.231667">Different Topology</tspan></text>
    </g>
    <g
       id="g34"
       transform="translate(0.10141145,3.3021172)">
      <rect
         style="fill:#000000;fill-opacity:1;stroke-width:0.595609;stroke-linecap:round;stroke-linejoin:round;paint-order:stroke fill markers"
         id="rect33"
         width="5.374608"
         height="0.76780117"
         x="58.131897"
         y="26.963339"
         ry="0.32050854" />
      <rect
         style="fill:#000000;fill-opacity:1;stroke-width:0.595609;stroke-linecap:round;stroke-linejoin:round;paint-order:stroke fill markers"
         id="rect34"
         width="5.374608"
         height="0.76780117"
         x="58.131897"
         y="28.607569"
         ry="0.32050854" />
      <text
         xml:space="preserve"
         style="font-stretch:condensed;font-size:4.9389px;line-height:1.25;font-family:'Gillius ADF';-inkscape-font-specification:'Gillius ADF, Condensed';text-align:center;letter-spacing:0px;word-spacing:0px;text-anchor:middle;stroke-width:0.264583"
         x="60.982979"
         y="22.203382"
         id="text34"><tspan
           sodipodi:role="line"
           id="tspan34"
           style="stroke-width:0.264583"
           x="60.982979"
           y="22.203382">Same Topology</tspan></text>
    </g>
  </g>
</svg>
