<?xml version="1.0" encoding="UTF-8" standalone="no"?>
<!-- Created with Inkscape (http://www.inkscape.org/) -->

<svg
   width="38.056477mm"
   height="38.056477mm"
   viewBox="0 0 38.056477 38.056477"
   version="1.1"
   id="svg1"
   inkscape:version="1.3 (1:1.3+202307231459+0e150ed6c4)"
   sodipodi:docname="af_logo.svg"
   xmlns:inkscape="http://www.inkscape.org/namespaces/inkscape"
   xmlns:sodipodi="http://sodipodi.sourceforge.net/DTD/sodipodi-0.dtd"
   xmlns="http://www.w3.org/2000/svg"
   xmlns:svg="http://www.w3.org/2000/svg">
  <sodipodi:namedview
     id="namedview1"
     pagecolor="#ffffff"
     bordercolor="#666666"
     borderopacity="1.0"
     inkscape:showpageshadow="2"
     inkscape:pageopacity="0.0"
     inkscape:pagecheckerboard="0"
     inkscape:deskcolor="#d1d1d1"
     inkscape:document-units="mm"
     showguides="true"
     inkscape:zoom="3.6489338"
     inkscape:cx="56.180795"
     inkscape:cy="70.979639"
     inkscape:window-width="1848"
     inkscape:window-height="1016"
     inkscape:window-x="72"
     inkscape:window-y="27"
     inkscape:window-maximized="1"
     inkscape:current-layer="layer1">
    <sodipodi:guide
       position="91.399531,169.19744"
       orientation="0,-1"
       id="guide3"
       inkscape:locked="false" />
    <sodipodi:guide
       position="101.76803,178.73562"
       orientation="0,-1"
       id="guide4"
       inkscape:locked="false" />
    <sodipodi:guide
       position="66.579701,155.38668"
       orientation="0,-1"
       id="guide5"
       inkscape:locked="false" />
    <sodipodi:guide
       position="86.678841,164.16942"
       orientation="0,-1"
       id="guide7"
       inkscape:locked="false" />
    <sodipodi:guide
       position="23.021852,16.122273"
       orientation="0,-1"
       id="guide1"
       inkscape:locked="false" />
  </sodipodi:namedview>
  <defs
     id="defs1">
    <inkscape:path-effect
       effect="spiro"
       id="path-effect26"
       is_visible="true"
       lpeversion="1" />
    <inkscape:path-effect
       effect="spiro"
       id="path-effect25"
       is_visible="true"
       lpeversion="1" />
    <inkscape:path-effect
       effect="spiro"
       id="path-effect23"
       is_visible="true"
       lpeversion="1" />
    <inkscape:path-effect
       effect="spiro"
       id="path-effect21"
       is_visible="true"
       lpeversion="1" />
    <inkscape:path-effect
       effect="spiro"
       id="path-effect16"
       is_visible="true"
       lpeversion="1" />
    <inkscape:path-effect
       effect="spiro"
       id="path-effect14"
       is_visible="true"
       lpeversion="1" />
    <inkscape:path-effect
       effect="spiro"
       id="path-effect12"
       is_visible="true"
       lpeversion="1" />
    <inkscape:path-effect
       effect="spiro"
       id="path-effect8"
       is_visible="true"
       lpeversion="1" />
    <inkscape:path-effect
       effect="spiro"
       id="path-effect7"
       is_visible="true"
       lpeversion="1" />
    <inkscape:path-effect
       effect="spiro"
       id="path-effect5"
       is_visible="true"
       lpeversion="1" />
  </defs>
  <g
     inkscape:label="Layer 1"
     inkscape:groupmode="layer"
     id="layer1"
     transform="translate(-53.056989,-72.735723)">
    <path
       style="fill:#ebba30;fill-opacity:1;stroke:none;stroke-width:0.59608;stroke-linecap:round;stroke-linejoin:round;stroke-dasharray:none;stroke-opacity:1;paint-order:stroke fill markers"
       d="m 57.781261,86.911598 c -0.866079,0.02908 -1.78371,0.0799 -2.584236,0.414584 -1.221076,4.684421 -0.440108,9.883357 2.24676,13.932618 0.569285,0.78853 1.073726,1.70521 1.858414,2.28721 0.506484,-1.88415 0.832089,-3.868655 1.258795,-5.791745 0.650254,-3.25058 1.377149,-6.497193 1.946918,-9.756941 -0.836337,-0.556988 -1.877671,-0.787829 -2.85682,-0.986187 -0.618985,-0.08565 -1.245507,-0.108029 -1.869831,-0.09954 z"
       id="path27"
       sodipodi:nodetypes="cccccccc" />
    <path
       style="fill:#ebba30;fill-opacity:1;stroke:none;stroke-width:0.59608;stroke-linecap:round;stroke-linejoin:round;stroke-dasharray:none;stroke-opacity:1;paint-order:stroke fill markers"
       d="m 64.954755,95.372703 c -0.709485,3.713298 -1.557872,7.414567 -2.142815,11.143467 1.168236,0.81077 2.519735,1.36586 3.856148,1.84865 1.857351,0.56205 3.822626,0.97837 5.767192,0.82031 -0.155252,-1.46942 -0.508453,-2.98625 -0.73945,-4.47188 -0.554942,-2.9119 -0.615727,-5.963043 -1.334786,-8.839759 -0.142491,-0.398153 0.142042,-0.815219 -1.209384,-0.522018 -1.396277,0.01423 -2.813285,-0.02837 -4.196905,0.02122 z"
       id="path28"
       sodipodi:nodetypes="sccccccss" />
    <circle
       style="fill:none;stroke:#000000;stroke-width:1.538;stroke-linecap:round;stroke-linejoin:round;stroke-dasharray:none;stroke-opacity:1;paint-order:stroke fill markers"
       id="circle16"
       cx="72.085228"
       cy="91.763962"
       r="18.259239" />
    <path
       style="fill:#ebba30;fill-opacity:1;stroke:none;stroke-width:0.59608;stroke-linecap:round;stroke-linejoin:round;stroke-dasharray:none;stroke-opacity:1;paint-order:stroke fill markers"
       d="m 76.203783,101.85223 c 0.02201,2.28994 -0.04366,4.62254 0.03265,6.88607 3.418806,-0.88043 6.613023,-2.73743 8.914345,-5.43425 0.05903,-0.24439 -0.421005,-0.008 -0.548373,-0.0175 -1.4937,0.28757 -3.072807,0.26284 -4.56923,-0.0217 -1.345761,-0.26765 -2.59902,-0.91413 -3.829388,-1.41258 z"
       id="path29"
       sodipodi:nodetypes="ccccccc" />
    <path
       id="path18"
       style="font-weight:bold;font-size:25.4px;line-height:1.25;font-family:Cousine;-inkscape-font-specification:'Cousine, Bold';text-align:center;letter-spacing:0px;word-spacing:0px;text-anchor:middle;stroke-width:0.381755"
       d="m 69.710986,73.661571 c -1.435151,0.22405 -3.803649,1.116294 -5.145318,1.672875 l -6.633707,28.445894 c 1.012328,1.02619 3.394434,2.76774 4.619064,3.5281 l 2.38176,-11.938286 5.11494,-0.02326 2.03088,11.431346 v 0.1664 l 0.03669,0.0398 0.53743,3.02462 c 1.175121,-0.0366 3.931458,-0.18668 5.07773,-0.44804 l 0.11214,-14.222376 h 7.25744 l 0.02583,-5.10202 h -7.25795 v -9.49193 l 8.75244,-0.02532 c -1.883292,-2.477383 -4.368507,-4.432324 -7.21972,-5.67924 l -7.30084,0.01292 0.173698,10.2922 z m -2.234171,7.013353 c 0.07598,0.61451 0.20902,1.52897 0.39894,2.74299 0.19941,1.21402 0.08842,0.67523 1.19941,6.85022 l -3.21582,0.0093 c 0.57318,-3.19434 1.18096,-6.38577 1.61747,-9.60252 z"
       sodipodi:nodetypes="cccccccccccccccccccccsccccs" />
  </g>
</svg>
